# xmcd
#
# Track frame offsets:
#	183
#	13338
#	28003
#	42558
#	58145
#	71595
#	84135
#	100463
#	116438
#	131583
#	145918
#	159258
#	172033
#	186435
#
# Disc length: 2672 seconds
#
# Revision: 3
# Processed by: cddbd v1.5.1PL0 Copyright (c) Steve Scherf et al.
# Submitted via: audiograbber 1.83.01
#
DISCID=c60a6e0e
DTITLE=Truck Stop - - Der wilde, wilde Westen
DYEAR=1900
DGENRE=
TTITLE0=Truck Stop - Die Frau mit dedm Gurt
TTITLE1=Truck Stop - Ein Tag wie ein Freund (Foxtrott)
TTITLE2=Truck Stop - Louisiana Ladies
TTITLE3=Truck Stop - Jeden Tag in einer anderen Stadt (Foxtrott)
TTITLE4=Truck Stop - Take it Easy, altes Haus (Foxtrott)
TTITLE5=Truck Stop - Der wilde, wilde Westen (Jive)
TTITLE6=Truck Stop - Old Texas Town, die Western-Stadt
TTITLE7=Truck Stop - Ich Möcht' so gern Dave Dudley hör'n
TTITLE8=Truck Stop - Trucker bleibt Trucker (langsamer Walzer)
TTITLE9=Truck Stop - Die Lady und der Tramp (Slow-Foxtrott)
TTITLE10=Truck Stop - Arizona, Arizona (Slow-Foxtrott)
TTITLE11=Truck Stop - Laß' doch mal den Cowboy ran (Boogie)
TTITLE12=Truck Stop - Der König von der Autobahn (Jive)
TTITLE13=Truck Stop - Hallo Freunde (Klammerblues)
EXTD=
EXTT0=
EXTT1=
EXTT2=
EXTT3=
EXTT4=
EXTT5=
EXTT6=
EXTT7=
EXTT8=
EXTT9=
EXTT10=
EXTT11=
EXTT12=
EXTT13=
PLAYORDER=
